<?xml version='1.0' encoding='UTF-8'?>
<mxfile host="Electron" version="25.0.2">
  <diagram name="Hub and Spoke Topology">
    <mxGraphModel dx="371" dy="1462" grid="0" gridSize="10" guides="1" tooltips="1" connect="1" arrows="1" fold="1" page="0" pageScale="1" pageWidth="827" pageHeight="1169" math="0" shadow="0" background="#ffffff">
      <root>
        <mxCell id="0"/>
        <mxCell id="1" parent="0"/>
        <mxCell id="hub" style="shape=rectangle;rounded=1;whiteSpace=wrap;html=1;strokeColor=#0078D4;fontColor=#004578;fillColor=#E6F1FB" vertex="1" parent="1" value="Subscription: Connectivity LZ&#10;p-virtualwan-vhub&#10;10.4.0.0/22">
          <mxGeometry x="400" y="400" width="400" height="50" as="geometry"/>
        </mxCell>
        <mxCell id="hub_image" style="shape=image;html=1;image=img/lib/azure2/networking/Virtual_Networks.svg;" vertex="1" parent="1">
          <mxGeometry x="780" y="440" width="20" height="20" as="geometry"/>
        </mxCell>
        <mxCell id="hub_virtualhub_image" style="shape=image;html=1;image=img/lib/azure2/networking/Virtual_WANs.svg;" vertex="1" parent="1">
          <mxGeometry x="190" y="415" width="20" height="20" as="geometry"/>
        </mxCell>
        <mxCell id="hub_expressroute_image" style="shape=image;html=1;image=img/lib/azure2/networking/ExpressRoute_Circuits.svg;" vertex="1" parent="1">
          <mxGeometry x="755" y="440" width="20" height="20" as="geometry"/>
        </mxCell>
        <mxCell id="hub_firewall_image" style="shape=image;html=1;image=img/lib/azure2/networking/Firewalls.svg;" vertex="1" parent="1">
          <mxGeometry x="730" y="440" width="20" height="20" as="geometry"/>
        </mxCell>
        <mxCell id="spoke_right_0" style="shape=rectangle;rounded=1;whiteSpace=wrap;html=1;strokeColor=#CC6600;fontColor=#323130;fillColor=#f2f7fc" vertex="1" parent="1" value="Subscription: LZ Application 3 Dev&#10;lz-application3-dev-vnet&#10;10.152.4.0/24">
          <mxGeometry x="900" y="200" width="400" height="50" as="geometry"/>
        </mxCell>
        <mxCell id="spoke0_image" style="shape=image;html=1;image=img/lib/azure2/networking/Virtual_Networks.svg;" vertex="1" parent="1">
          <mxGeometry x="1280" y="240" width="20" height="20" as="geometry"/>
        </mxCell>
        <mxCell id="edge_right_0" edge="1" source="hub" target="spoke_right_0" style="edgeStyle=orthogonalEdgeStyle;rounded=1;strokeColor=#0078D4;strokeWidth=2;endArrow=block;startArrow=block;" parent="1">
          <mxGeometry relative="1" as="geometry">
            <Array as="points">
              <mxPoint x="800" y="225"/>
              <mxPoint x="900" y="225"/>
            </Array>
          </mxGeometry>
        </mxCell>
        <mxCell id="spoke_right_1" style="shape=rectangle;rounded=1;whiteSpace=wrap;html=1;strokeColor=#CC6600;fontColor=#323130;fillColor=#f2f7fc" vertex="1" parent="1" value="Subscription: LZ Application 1 Dev&#10;lz-application1-dev-vnet&#10;10.152.32.0/22">
          <mxGeometry x="900" y="300" width="400" height="50" as="geometry"/>
        </mxCell>
        <mxCell id="spoke1_image" style="shape=image;html=1;image=img/lib/azure2/networking/Virtual_Networks.svg;" vertex="1" parent="1">
          <mxGeometry x="1280" y="340" width="20" height="20" as="geometry"/>
        </mxCell>
        <mxCell id="edge_right_1" edge="1" source="hub" target="spoke_right_1" style="edgeStyle=orthogonalEdgeStyle;rounded=1;strokeColor=#0078D4;strokeWidth=2;endArrow=block;startArrow=block;" parent="1">
          <mxGeometry relative="1" as="geometry">
            <Array as="points">
              <mxPoint x="800" y="325"/>
              <mxPoint x="900" y="325"/>
            </Array>
          </mxGeometry>
        </mxCell>
        <mxCell id="spoke_right_2" style="shape=rectangle;rounded=1;whiteSpace=wrap;html=1;strokeColor=#CC6600;fontColor=#323130;fillColor=#f2f7fc" vertex="1" parent="1" value="Subscription: LZ Dev&#10;lz-apptest-vnet&#10;10.4.255.0/24">
          <mxGeometry x="900" y="400" width="400" height="50" as="geometry"/>
        </mxCell>
        <mxCell id="spoke2_image" style="shape=image;html=1;image=img/lib/azure2/networking/Virtual_Networks.svg;" vertex="1" parent="1">
          <mxGeometry x="1280" y="440" width="20" height="20" as="geometry"/>
        </mxCell>
        <mxCell id="edge_right_2" edge="1" source="hub" target="spoke_right_2" style="edgeStyle=orthogonalEdgeStyle;rounded=1;strokeColor=#0078D4;strokeWidth=2;endArrow=block;startArrow=block;" parent="1">
          <mxGeometry relative="1" as="geometry">
            <Array as="points">
              <mxPoint x="800" y="425"/>
              <mxPoint x="900" y="425"/>
            </Array>
          </mxGeometry>
        </mxCell>
        <mxCell id="spoke_right_3" style="shape=rectangle;rounded=1;whiteSpace=wrap;html=1;strokeColor=#CC6600;fontColor=#323130;fillColor=#f2f7fc" vertex="1" parent="1" value="Subscription: LZ Application 3 Test&#10;lz-application3-test-vnet&#10;10.152.0.0/22">
          <mxGeometry x="900" y="500" width="400" height="50" as="geometry"/>
        </mxCell>
        <mxCell id="spoke3_image" style="shape=image;html=1;image=img/lib/azure2/networking/Virtual_Networks.svg;" vertex="1" parent="1">
          <mxGeometry x="1280" y="540" width="20" height="20" as="geometry"/>
        </mxCell>
        <mxCell id="edge_right_3" edge="1" source="hub" target="spoke_right_3" style="edgeStyle=orthogonalEdgeStyle;rounded=1;strokeColor=#0078D4;strokeWidth=2;endArrow=block;startArrow=block;" parent="1">
          <mxGeometry relative="1" as="geometry">
            <Array as="points">
              <mxPoint x="800" y="525"/>
              <mxPoint x="900" y="525"/>
            </Array>
          </mxGeometry>
        </mxCell>
        <mxCell id="spoke_right_4" style="shape=rectangle;rounded=1;whiteSpace=wrap;html=1;strokeColor=#CC6600;fontColor=#323130;fillColor=#f2f7fc" vertex="1" parent="1" value="Subscription: LZ Application 2 Dev&#10;lz-application2-test-vnet&#10;10.136.4.0/24">
          <mxGeometry x="900" y="600" width="400" height="50" as="geometry"/>
        </mxCell>
        <mxCell id="spoke4_image" style="shape=image;html=1;image=img/lib/azure2/networking/Virtual_Networks.svg;" vertex="1" parent="1">
          <mxGeometry x="1280" y="640" width="20" height="20" as="geometry"/>
        </mxCell>
        <mxCell id="edge_right_4" edge="1" source="hub" target="spoke_right_4" style="edgeStyle=orthogonalEdgeStyle;rounded=1;strokeColor=#0078D4;strokeWidth=2;endArrow=block;startArrow=block;" parent="1">
          <mxGeometry relative="1" as="geometry">
            <Array as="points">
              <mxPoint x="800" y="625"/>
              <mxPoint x="900" y="625"/>
            </Array>
          </mxGeometry>
        </mxCell>
        <mxCell id="spoke_right_5" style="shape=rectangle;rounded=1;whiteSpace=wrap;html=1;strokeColor=#CC6600;fontColor=#323130;fillColor=#f2f7fc" vertex="1" parent="1" value="Subscription: LZ Application 4 Dev&#10;lz-application4-dev-vnet&#10;10.136.0.0/22">
          <mxGeometry x="900" y="700" width="400" height="50" as="geometry"/>
        </mxCell>
        <mxCell id="spoke5_image" style="shape=image;html=1;image=img/lib/azure2/networking/Virtual_Networks.svg;" vertex="1" parent="1">
          <mxGeometry x="1280" y="740" width="20" height="20" as="geometry"/>
        </mxCell>
        <mxCell id="edge_right_5" edge="1" source="hub" target="spoke_right_5" style="edgeStyle=orthogonalEdgeStyle;rounded=1;strokeColor=#0078D4;strokeWidth=2;endArrow=block;startArrow=block;" parent="1">
          <mxGeometry relative="1" as="geometry">
            <Array as="points">
              <mxPoint x="800" y="725"/>
              <mxPoint x="900" y="725"/>
            </Array>
          </mxGeometry>
        </mxCell>
        <mxCell id="spoke_right_6" style="shape=rectangle;rounded=1;whiteSpace=wrap;html=1;strokeColor=#CC6600;fontColor=#323130;fillColor=#f2f7fc" vertex="1" parent="1" value="Subscription: LZ Management&#10;lz-management-vnet&#10;10.4.12.0/24">
          <mxGeometry x="900" y="800" width="400" height="50" as="geometry"/>
        </mxCell>
        <mxCell id="spoke6_image" style="shape=image;html=1;image=img/lib/azure2/networking/Virtual_Networks.svg;" vertex="1" parent="1">
          <mxGeometry x="1280" y="840" width="20" height="20" as="geometry"/>
        </mxCell>
        <mxCell id="edge_right_6" edge="1" source="hub" target="spoke_right_6" style="edgeStyle=orthogonalEdgeStyle;rounded=1;strokeColor=#0078D4;strokeWidth=2;endArrow=block;startArrow=block;" parent="1">
          <mxGeometry relative="1" as="geometry">
            <Array as="points">
              <mxPoint x="800" y="825"/>
              <mxPoint x="900" y="825"/>
            </Array>
          </mxGeometry>
        </mxCell>
        <mxCell id="spoke_left_0" style="shape=rectangle;rounded=1;whiteSpace=wrap;html=1;strokeColor=#CC6600;fontColor=#323130;fillColor=#f2f7fc" vertex="1" parent="1" value="Subscription: LZ Application Dev&#10;Testing-vnet&#10;10.4.5.0/24">
          <mxGeometry x="-100" y="200" width="400" height="50" as="geometry"/>
        </mxCell>
        <mxCell id="spoke_left0_image" style="shape=image;html=1;image=img/lib/azure2/networking/Virtual_Networks.svg;" vertex="1" parent="1">
          <mxGeometry x="280" y="240" width="20" height="20" as="geometry"/>
        </mxCell>
        <mxCell id="edge_left_0" edge="1" source="hub" target="spoke_left_0" style="edgeStyle=orthogonalEdgeStyle;rounded=1;strokeColor=#0078D4;strokeWidth=2;endArrow=block;startArrow=block;" parent="1">
          <mxGeometry relative="1" as="geometry">
            <Array as="points">
              <mxPoint x="400" y="225"/>
              <mxPoint x="300" y="225"/>
            </Array>
          </mxGeometry>
        </mxCell>
        <mxCell id="spoke_left_1" style="shape=rectangle;rounded=1;whiteSpace=wrap;html=1;strokeColor=#CC6600;fontColor=#323130;fillColor=#f2f7fc" vertex="1" parent="1" value="Subscription: LZ Application 1 Test&#10;lz-application1-test-vnet&#10;10.136.32.0/22">
          <mxGeometry x="-100" y="300" width="400" height="50" as="geometry"/>
        </mxCell>
        <mxCell id="spoke_left1_image" style="shape=image;html=1;image=img/lib/azure2/networking/Virtual_Networks.svg;" vertex="1" parent="1">
          <mxGeometry x="280" y="340" width="20" height="20" as="geometry"/>
        </mxCell>
        <mxCell id="edge_left_1" edge="1" source="hub" target="spoke_left_1" style="edgeStyle=orthogonalEdgeStyle;rounded=1;strokeColor=#0078D4;strokeWidth=2;endArrow=block;startArrow=block;" parent="1">
          <mxGeometry relative="1" as="geometry">
            <Array as="points">
              <mxPoint x="400" y="325"/>
              <mxPoint x="300" y="325"/>
            </Array>
          </mxGeometry>
        </mxCell>
        <mxCell id="spoke_left_2" style="shape=rectangle;rounded=1;whiteSpace=wrap;html=1;strokeColor=#CC6600;fontColor=#323130;fillColor=#f2f7fc" vertex="1" parent="1" value="Subscription: LZ Application 2 Test&#10;lz-application2-vnet&#10;10.136.18.0/23">
          <mxGeometry x="-100" y="400" width="400" height="50" as="geometry"/>
        </mxCell>
        <mxCell id="spoke_left2_image" style="shape=image;html=1;image=img/lib/azure2/networking/Virtual_Networks.svg;" vertex="1" parent="1">
          <mxGeometry x="280" y="440" width="20" height="20" as="geometry"/>
        </mxCell>
        <mxCell id="edge_left_2" edge="1" source="hub" target="spoke_left_2" style="edgeStyle=orthogonalEdgeStyle;rounded=1;strokeColor=#0078D4;strokeWidth=2;endArrow=block;startArrow=block;" parent="1">
          <mxGeometry relative="1" as="geometry">
            <Array as="points">
              <mxPoint x="400" y="425"/>
              <mxPoint x="300" y="425"/>
            </Array>
          </mxGeometry>
        </mxCell>
        <mxCell id="spoke_left_3" style="shape=rectangle;rounded=1;whiteSpace=wrap;html=1;strokeColor=#CC6600;fontColor=#323130;fillColor=#f2f7fc" vertex="1" parent="1" value="Subscription: LZ Testing&#10;lz-testing-vnet&#10;10.148.0.0/22">
          <mxGeometry x="-100" y="500" width="400" height="50" as="geometry"/>
        </mxCell>
        <mxCell id="spoke_left3_image" style="shape=image;html=1;image=img/lib/azure2/networking/Virtual_Networks.svg;" vertex="1" parent="1">
          <mxGeometry x="280" y="540" width="20" height="20" as="geometry"/>
        </mxCell>
        <mxCell id="edge_left_3" edge="1" source="hub" target="spoke_left_3" style="edgeStyle=orthogonalEdgeStyle;rounded=1;strokeColor=#0078D4;strokeWidth=2;endArrow=block;startArrow=block;" parent="1">
          <mxGeometry relative="1" as="geometry">
            <Array as="points">
              <mxPoint x="400" y="525"/>
              <mxPoint x="300" y="525"/>
            </Array>
          </mxGeometry>
        </mxCell>
        <mxCell id="spoke_left_4" style="shape=rectangle;rounded=1;whiteSpace=wrap;html=1;strokeColor=#CC6600;fontColor=#323130;fillColor=#f2f7fc" vertex="1" parent="1" value="Subscription: LZ Application 3 Prod&#10;lz-application3-prod-vnet&#10;10.148.4.0/24">
          <mxGeometry x="-100" y="600" width="400" height="50" as="geometry"/>
        </mxCell>
        <mxCell id="spoke_left4_image" style="shape=image;html=1;image=img/lib/azure2/networking/Virtual_Networks.svg;" vertex="1" parent="1">
          <mxGeometry x="280" y="640" width="20" height="20" as="geometry"/>
        </mxCell>
        <mxCell id="edge_left_4" edge="1" source="hub" target="spoke_left_4" style="edgeStyle=orthogonalEdgeStyle;rounded=1;strokeColor=#0078D4;strokeWidth=2;endArrow=block;startArrow=block;" parent="1">
          <mxGeometry relative="1" as="geometry">
            <Array as="points">
              <mxPoint x="400" y="625"/>
              <mxPoint x="300" y="625"/>
            </Array>
          </mxGeometry>
        </mxCell>
        <mxCell id="spoke_left_5" style="shape=rectangle;rounded=1;whiteSpace=wrap;html=1;strokeColor=#CC6600;fontColor=#323130;fillColor=#f2f7fc" vertex="1" parent="1" value="Subscription: LZ Application 2 Prod&#10;lz-application2-prod-vnet&#10;10.148.18.0/23">
          <mxGeometry x="-100" y="700" width="400" height="50" as="geometry"/>
        </mxCell>
        <mxCell id="spoke_left5_image" style="shape=image;html=1;image=img/lib/azure2/networking/Virtual_Networks.svg;" vertex="1" parent="1">
          <mxGeometry x="280" y="740" width="20" height="20" as="geometry"/>
        </mxCell>
        <mxCell id="edge_left_5" edge="1" source="hub" target="spoke_left_5" style="edgeStyle=orthogonalEdgeStyle;rounded=1;strokeColor=#0078D4;strokeWidth=2;endArrow=block;startArrow=block;" parent="1">
          <mxGeometry relative="1" as="geometry">
            <Array as="points">
              <mxPoint x="400" y="725"/>
              <mxPoint x="300" y="725"/>
            </Array>
          </mxGeometry>
        </mxCell>
        <mxCell id="spoke_left_6" style="shape=rectangle;rounded=1;whiteSpace=wrap;html=1;strokeColor=#CC6600;fontColor=#323130;fillColor=#f2f7fc" vertex="1" parent="1" value="Subscription: LZ Application 1 Prod&#10;lz-application1-prod-vnet&#10;10.148.32.0/22">
          <mxGeometry x="-100" y="800" width="400" height="50" as="geometry"/>
        </mxCell>
        <mxCell id="spoke_left6_image" style="shape=image;html=1;image=img/lib/azure2/networking/Virtual_Networks.svg;" vertex="1" parent="1">
          <mxGeometry x="280" y="840" width="20" height="20" as="geometry"/>
        </mxCell>
        <mxCell id="edge_left_6" edge="1" source="hub" target="spoke_left_6" style="edgeStyle=orthogonalEdgeStyle;rounded=1;strokeColor=#0078D4;strokeWidth=2;endArrow=block;startArrow=block;" parent="1">
          <mxGeometry relative="1" as="geometry">
            <Array as="points">
              <mxPoint x="400" y="825"/>
              <mxPoint x="300" y="825"/>
            </Array>
          </mxGeometry>
        </mxCell>
        <mxCell id="nonpeered_spoke0" style="shape=rectangle;rounded=1;whiteSpace=wrap;html=1;strokeColor=#A19F9D;fontColor=#201F1E;fillColor=#F3F2F1" vertex="1" parent="1" value="Subscription: LZ Application 4 Test&#10;lz-application4-test-vnet&#10;10.136.20.0/22">
          <mxGeometry x="1450" y="200" width="400" height="50" as="geometry"/>
        </mxCell>
        <mxCell id="nonpeered_spoke0_image" style="shape=image;html=1;image=img/lib/azure2/networking/Virtual_Networks.svg;" vertex="1" parent="1">
          <mxGeometry x="1830" y="240" width="20" height="20" as="geometry"/>
        </mxCell>
        <mxCell id="nonpeered_spoke1" style="shape=rectangle;rounded=1;whiteSpace=wrap;html=1;strokeColor=#A19F9D;fontColor=#201F1E;fillColor=#F3F2F1" vertex="1" parent="1" value="Subscription: LZ Playground Test&#10;lz-playground-test-vnet&#10;10.136.24.0/22">
          <mxGeometry x="1450" y="300" width="400" height="50" as="geometry"/>
        </mxCell>
        <mxCell id="nonpeered_spoke1_image" style="shape=image;html=1;image=img/lib/azure2/networking/Virtual_Networks.svg;" vertex="1" parent="1">
          <mxGeometry x="1830" y="340" width="20" height="20" as="geometry"/>
        </mxCell>
      </root>
    </mxGraphModel>
  </diagram>
</mxfile>
